<svg xmlns="http://www.w3.org/2000/svg" viewBox="0 0 64 64" width="64" height="64">
  <rect width="64" height="64" rx="14" fill="#0f172a" />

  <circle cx="32" cy="32" r="6" fill="#dc2626" />

  <g fill="#dc2626">
    <path d="M 37 40.66 L 46 56.25 A 28 28 0 0 1 18 56.25 L 27 40.66 A 10 10 0 0 0 37 40.66 Z" />
    
    <path d="M 37 40.66 L 46 56.25 A 28 28 0 0 1 18 56.25 L 27 40.66 A 10 10 0 0 0 37 40.66 Z" transform="rotate(120 32 32)" />
    
    <path d="M 37 40.66 L 46 56.25 A 28 28 0 0 1 18 56.25 L 27 40.66 A 10 10 0 0 0 37 40.66 Z" transform="rotate(240 32 32)" />
  </g>
</svg>
